<?xml version="1.0" standalone="no"?>
<!DOCTYPE svg PUBLIC "-//W3C//DTD SVG 20010904//EN"
 "http://www.w3.org/TR/2001/REC-SVG-20010904/DTD/svg10.dtd">
<svg version="1.0" xmlns="http://www.w3.org/2000/svg"
 width="1095.000000pt" height="228.000000pt" viewBox="0 0 1095.000000 228.000000"
 preserveAspectRatio="xMidYMid meet">

<g transform="translate(0.000000,228.000000) scale(0.100000,-0.100000)"
fill="white" stroke="none">
<path d="M2560 1145 c0 -1128 0 -1135 20 -1135 20 0 20 7 20 1135 0 1128 0
1135 -20 1135 -20 0 -20 -7 -20 -1135z"/>
<path d="M3363 1860 c-54 -11 -92 -31 -124 -67 -49 -52 -61 -89 -57 -169 3
-62 8 -79 35 -116 43 -59 105 -90 196 -95 81 -5 169 20 175 49 3 15 -1 14 -35
-3 -25 -13 -58 -19 -99 -19 -77 0 -137 30 -179 89 -27 39 -30 50 -30 120 0 66
4 83 25 114 36 52 86 77 154 77 77 0 126 -21 126 -54 0 -25 15 -43 23 -29 3 5
7 26 8 48 l4 39 -60 13 c-68 14 -102 14 -162 3z"/>
<path d="M5605 1863 c-75 -17 -99 -28 -132 -56 -48 -42 -73 -99 -73 -168 0
-133 85 -216 231 -227 66 -4 161 17 175 39 11 19 -3 19 -42 3 -62 -26 -162
-16 -215 21 -123 87 -116 284 12 351 39 20 136 18 179 -4 25 -12 36 -25 40
-47 7 -37 17 -23 21 29 l4 40 -60 13 c-61 12 -104 14 -140 6z"/>
<path d="M8065 1856 c-91 -34 -124 -146 -60 -206 17 -16 43 -24 102 -31 92
-11 127 -32 131 -78 7 -68 -63 -119 -147 -107 -63 9 -91 29 -91 67 0 18 -4 28
-10 24 -5 -3 -10 -26 -10 -50 0 -42 1 -44 38 -54 136 -39 272 31 272 140 0 65
-31 89 -134 105 -92 13 -112 23 -127 62 -11 29 11 86 39 101 27 14 108 14 135
0 28 -15 37 -28 37 -59 0 -20 2 -22 10 -10 5 8 10 30 10 48 0 26 -5 34 -26 42
-47 18 -127 21 -169 6z"/>
<path d="M3951 1818 c-131 -306 -167 -377 -194 -388 -16 -6 0 -9 53 -9 62 1
70 2 48 11 -34 12 -34 20 -7 87 l22 52 91 -3 91 -3 18 -39 c28 -59 27 -88 -3
-97 -15 -4 8 -7 60 -7 67 -1 80 2 63 10 -22 11 -38 44 -151 307 -27 63 -54
117 -60 119 -7 2 -20 -16 -31 -40z m58 -141 c17 -43 31 -80 31 -82 0 -3 -34
-5 -75 -5 -41 0 -75 4 -75 8 0 10 47 127 62 156 13 25 21 14 57 -77z"/>
<path d="M4365 1852 c6 -6 19 -12 30 -14 16 -2 22 -15 28 -58 12 -74 1 -328
-14 -346 -10 -12 3 -14 85 -14 110 0 149 12 189 59 21 26 27 43 27 81 0 42 -4
52 -31 74 -17 14 -43 26 -57 27 -25 0 -26 1 -7 12 10 7 32 24 47 39 34 32 38
84 9 119 -18 23 -26 24 -168 27 -96 2 -144 0 -138 -6z m247 -42 c25 -31 23
-76 -5 -104 -24 -24 -97 -43 -117 -31 -11 7 -14 148 -2 159 4 4 29 6 56 3 36
-3 55 -11 68 -27z m9 -189 c43 -43 41 -101 -5 -147 -30 -30 -40 -34 -85 -34
l-51 0 0 105 0 105 56 0 c48 0 59 -4 85 -29z"/>
<path d="M4875 1850 c3 -5 17 -10 30 -10 12 0 26 -7 29 -16 3 -9 6 -95 6 -193
0 -185 -4 -201 -44 -201 -10 0 -17 -2 -14 -5 7 -7 325 -11 331 -5 2 3 7 26 10
53 7 50 -6 65 -18 20 -12 -49 -21 -53 -116 -53 l-89 0 0 95 0 96 73 -3 c70 -3
72 -4 75 -30 7 -56 22 -26 22 42 0 40 -4 70 -10 70 -5 0 -10 -11 -10 -25 0
-24 -2 -25 -75 -25 l-75 0 0 85 0 84 36 7 c21 4 62 3 93 -2 54 -9 56 -10 62
-44 6 -39 14 -27 23 33 l5 37 -175 0 c-114 0 -173 -3 -169 -10z"/>
<path d="M5965 1850 c3 -5 17 -10 29 -10 32 0 36 -27 36 -219 0 -164 -5 -185
-45 -194 -11 -3 34 -6 100 -8 133 -4 215 -3 219 2 2 2 6 25 8 52 6 52 -9 65
-19 17 -8 -42 -28 -50 -122 -50 l-81 0 0 95 0 95 59 0 c75 0 91 -6 91 -36 0
-13 5 -24 10 -24 6 0 10 30 10 70 0 66 -15 98 -22 48 -3 -21 -9 -23 -75 -26
l-73 -3 0 84 c0 79 1 85 23 91 34 9 88 7 130 -5 33 -9 37 -14 37 -41 0 -44 16
-23 23 30 l5 42 -175 0 c-113 0 -172 -3 -168 -10z"/>
<path d="M6480 1851 c0 -5 12 -11 28 -13 l27 -3 3 -189 c3 -197 0 -211 -41
-219 -12 -2 21 -4 73 -4 52 -1 82 2 65 6 l-30 6 -3 203 -2 202 24 0 c14 0 28
5 31 10 4 6 -27 10 -84 10 -50 0 -91 -4 -91 -9z"/>
<path d="M6810 1851 c0 -5 12 -11 28 -13 l27 -3 0 -200 0 -200 -30 -6 c-17 -4
12 -7 65 -7 52 0 86 3 75 5 -44 11 -45 17 -45 213 0 210 -4 200 76 200 56 0
94 -33 94 -80 0 -61 -31 -95 -97 -106 l-41 -6 86 -114 86 -114 45 0 c43 0 44
1 24 15 -23 16 -153 187 -153 202 0 5 16 15 35 22 47 17 75 55 75 103 0 52
-13 74 -51 87 -39 13 -299 15 -299 2z"/>
<path d="M7579 1848 c0 -7 -39 -101 -87 -208 -67 -148 -94 -198 -112 -207 -22
-11 -16 -13 50 -12 64 0 71 2 46 11 -31 12 -32 29 -2 101 l16 37 90 0 91 0 20
-47 c30 -71 29 -86 -6 -94 -18 -4 5 -7 60 -7 64 -1 83 2 67 8 -13 6 -31 29
-43 57 -116 273 -163 373 -175 373 -8 0 -14 -6 -15 -12z m45 -162 c20 -47 36
-87 36 -90 0 -3 -36 -6 -79 -6 l-79 0 36 90 c20 49 40 90 43 90 4 0 23 -38 43
-84z"/>
<path d="M107 1715 c-11 -11 -17 -33 -17 -64 0 -43 -2 -48 -30 -58 -44 -17
-66 -73 -50 -128 13 -44 110 -248 133 -279 14 -19 15 -19 43 1 107 75 301 139
663 218 306 66 424 124 424 205 0 36 6 37 41 9 19 -15 26 -30 26 -55 0 -39 13
-43 63 -18 41 21 85 62 103 96 16 31 16 32 -86 47 -262 39 -489 49 -498 22 -2
-7 -32 -11 -73 -11 -39 0 -69 -4 -69 -10 0 -6 -35 -11 -82 -11 -75 -2 -69 -3
67 -15 350 -30 445 -44 445 -62 0 -30 -187 -96 -385 -137 -273 -57 -468 -116
-597 -181 -26 -13 -51 -24 -56 -24 -13 0 -112 214 -112 242 0 29 12 41 55 55
31 10 34 19 24 88 -4 28 -2 30 26 28 17 0 47 -8 68 -17 l37 -16 0 -78 0 -79
40 -31 39 -32 -3 32 c-2 18 -6 40 -9 48 -3 8 -9 49 -12 91 l-7 77 -60 27 c-79
36 -129 42 -151 20z m1312 -74 c9 -6 10 -10 2 -16 -15 -8 -41 1 -41 15 0 12
20 13 39 1z"/>
<path d="M768 1603 c7 -3 16 -2 19 1 4 3 -2 6 -13 5 -11 0 -14 -3 -6 -6z"/>
<path d="M1566 1603 c-3 -4 -6 -14 -6 -23 0 -26 -40 -57 -95 -73 -34 -11 -42
-16 -25 -16 43 -1 96 18 120 44 13 14 29 25 36 25 13 0 44 -59 44 -84 0 -8 11
-23 25 -32 l25 -16 -25 -24 c-42 -39 -28 -71 51 -121 17 -11 16 -12 -13 -12
-31 -1 -63 -22 -63 -43 0 -5 34 -43 76 -85 41 -41 74 -77 71 -79 -11 -12 -386
72 -405 90 -3 4 3 13 15 21 90 63 123 97 134 137 14 54 3 87 -36 109 -38 21
-130 36 -120 19 5 -8 2 -10 -11 -6 -11 3 -59 7 -109 8 -89 3 -91 2 -185 -44
-60 -29 -141 -58 -220 -78 -267 -67 -362 -110 -461 -209 -191 -192 -170 -386
53 -491 54 -26 242 -69 253 -58 3 3 -29 26 -70 52 -88 56 -117 92 -123 155 -9
95 70 196 210 266 94 47 101 46 83 -6 -8 -23 -15 -53 -15 -67 0 -205 337 -361
730 -336 80 5 114 10 95 14 l-30 7 40 7 c22 4 58 11 80 16 22 5 49 11 60 13
11 2 -71 1 -182 -1 -273 -7 -411 16 -564 94 -86 43 -128 79 -150 130 -37 82
-4 148 113 232 91 65 86 73 -25 46 -242 -58 -414 -159 -474 -278 -29 -58 -40
-141 -24 -187 6 -18 9 -34 6 -37 -2 -2 -26 11 -52 30 -60 42 -96 107 -89 161
13 105 128 246 246 303 64 31 138 55 335 109 103 28 237 84 249 104 5 7 40 11
94 11 145 -1 220 -24 179 -55 -10 -7 -70 -30 -133 -50 -236 -76 -246 -154 -35
-284 83 -51 208 -112 230 -111 3 0 -32 21 -78 46 -187 100 -288 185 -264 222
16 27 81 60 181 92 51 17 104 38 118 47 26 16 38 15 26 -3 -4 -6 -32 -29 -63
-52 -31 -22 -66 -53 -78 -68 -19 -24 -20 -30 -8 -48 23 -34 65 -53 193 -85
136 -35 261 -54 320 -49 71 6 56 53 -51 164 l-43 44 48 0 c94 0 92 52 -3 98
-81 38 -94 53 -67 77 26 24 25 60 -1 79 -12 8 -31 38 -43 67 -18 44 -27 54
-58 65 -20 7 -39 10 -42 7z"/>
<path d="M833 1593 c9 -2 17 -8 17 -13 0 -17 -98 -31 -200 -28 -58 1 -136 -2
-175 -6 -64 -8 -72 -7 -89 13 -11 11 -23 21 -28 21 -18 0 -7 -34 19 -57 24
-23 32 -25 87 -18 34 3 120 10 191 14 93 6 149 15 198 32 68 23 86 39 43 39
-13 0 -36 2 -52 4 -16 2 -21 1 -11 -1z"/>
<path d="M4286 1150 c-63 -16 -153 -70 -197 -117 -22 -24 -55 -74 -72 -111
-30 -63 -32 -74 -32 -183 0 -113 1 -116 38 -191 176 -357 693 -272 759 125 31
188 -81 394 -249 457 -66 25 -187 34 -247 20z m191 -71 c87 -42 132 -138 140
-296 11 -204 -45 -340 -159 -387 -81 -34 -179 -10 -235 59 -109 132 -106 460
5 579 61 65 168 84 249 45z"/>
<path d="M6103 1148 c-6 -7 -62 -155 -126 -328 -175 -477 -154 -430 -194 -430
-38 0 -53 -21 -33 -45 10 -13 32 -15 104 -13 90 3 91 3 91 28 0 20 -6 26 -27
28 -16 2 -28 9 -28 15 0 7 14 51 32 99 l32 88 122 0 121 0 31 -82 c16 -46 33
-91 37 -100 6 -15 1 -18 -33 -18 -43 0 -62 -21 -41 -46 9 -11 65 -14 283 -14
149 0 277 4 284 9 8 5 12 17 10 27 -2 15 -14 20 -51 22 l-47 3 0 295 c0 161 3
294 8 294 4 0 108 -145 232 -322 124 -177 233 -326 242 -332 12 -7 21 -6 32 3
14 12 16 58 16 387 l0 373 43 3 c37 3 42 6 42 28 l0 25 -120 0 -120 0 0 -25
c0 -23 4 -25 48 -28 l47 -3 0 -235 c0 -128 -3 -234 -7 -234 -5 0 -93 120 -197
265 l-189 265 -106 0 c-114 0 -138 -8 -120 -42 7 -13 21 -18 49 -18 l40 0 0
-350 0 -350 -88 0 -89 0 -26 67 c-14 38 -76 203 -137 368 -60 165 -114 307
-119 315 -11 20 -35 24 -48 8z m25 -376 c23 -62 42 -115 42 -117 0 -3 -43 -5
-95 -5 -52 0 -95 2 -95 4 0 2 18 52 40 112 22 60 43 115 45 123 9 23 19 4 63
-117z"/>
<path d="M8353 1148 c-10 -13 -27 -59 -183 -483 -44 -121 -86 -232 -92 -247
-8 -23 -17 -28 -45 -28 -38 0 -53 -21 -33 -45 10 -13 32 -15 104 -13 90 3 91
3 91 28 0 20 -6 26 -27 28 -16 2 -28 8 -28 14 0 6 14 51 32 99 l32 89 121 0
121 0 31 -82 c17 -46 34 -91 38 -100 6 -15 1 -18 -33 -18 -43 0 -62 -21 -41
-46 9 -11 65 -14 283 -14 149 0 277 4 284 9 8 5 12 17 10 27 -2 15 -14 20 -51
22 l-47 3 0 295 c0 161 3 294 8 294 4 0 108 -145 232 -322 124 -177 234 -326
243 -332 14 -9 21 -7 33 8 12 16 14 83 14 388 l0 368 39 0 c46 0 70 22 51 45
-11 13 -35 15 -129 13 l-116 -3 0 -25 c0 -23 4 -25 48 -28 l47 -3 0 -235 c0
-128 -3 -234 -7 -234 -5 0 -93 120 -196 265 l-189 265 -108 0 c-83 0 -110 -3
-120 -15 -19 -23 5 -45 51 -45 l39 0 0 -350 0 -350 -89 0 -89 0 -121 328 c-67
180 -132 352 -144 382 -23 55 -45 72 -64 48z m26 -375 c22 -62 41 -115 41
-118 0 -3 -43 -5 -95 -5 -52 0 -95 2 -95 4 0 2 18 52 40 112 23 60 43 115 46
123 8 23 18 3 63 -116z"/>
<path d="M9883 1148 c-10 -12 -51 -122 -235 -620 l-50 -137 -37 -3 c-28 -2
-37 -8 -39 -25 -4 -29 19 -35 123 -31 78 3 80 4 80 28 0 20 -6 26 -27 28 -16
2 -28 9 -28 15 0 6 14 51 31 99 l32 88 121 0 122 0 36 -97 36 -98 -40 -3 c-42
-3 -58 -23 -38 -47 11 -13 79 -15 484 -15 354 0 475 3 484 12 19 19 16 252 -3
268 -26 21 -42 4 -54 -58 -25 -127 -74 -162 -228 -162 l-103 0 0 349 0 350 48
3 c43 3 47 5 47 28 l0 25 -166 3 c-139 2 -168 0 -179 -13 -19 -23 5 -45 51
-45 l39 0 0 -350 0 -350 -89 0 c-75 0 -90 3 -96 18 -4 9 -56 150 -116 312 -60
162 -122 326 -137 365 -27 69 -48 89 -69 63z m21 -369 c24 -63 42 -117 39
-121 -5 -9 -183 -11 -183 -3 0 2 16 49 36 102 20 54 41 109 46 122 5 13 11 21
14 18 3 -3 25 -56 48 -118z"/>
<path d="M3150 1135 c-19 -23 5 -45 51 -45 l39 0 0 -350 0 -350 -45 0 c-50 0
-67 -18 -44 -46 20 -24 438 -15 519 11 157 49 246 156 269 321 19 131 -15 256
-90 339 -98 107 -199 135 -490 135 -163 0 -199 -3 -209 -15z m448 -60 c67 -20
114 -62 149 -133 26 -54 27 -65 28 -192 0 -152 -14 -210 -65 -272 -47 -56
-106 -80 -216 -86 l-94 -5 0 352 0 351 73 0 c40 0 97 -7 125 -15z"/>
<path d="M5124 1135 c-12 -31 4 -45 51 -45 l45 0 0 -349 0 -350 -47 -3 c-44
-3 -48 -5 -48 -28 l0 -25 170 0 170 0 3 27 c3 27 2 28 -42 28 l-46 0 0 145 0
145 78 0 c102 0 173 22 224 68 53 48 68 85 68 170 0 58 -4 75 -30 115 -57 91
-151 117 -417 117 -145 0 -175 -2 -179 -15z m396 -63 c50 -24 70 -71 70 -160
0 -79 -21 -137 -58 -159 -12 -7 -50 -15 -86 -19 l-66 -7 0 182 0 181 53 0 c29
0 67 -8 87 -18z"/>
<path d="M7312 1138 c-19 -19 -16 -222 3 -238 24 -20 41 -5 54 46 7 26 22 61
33 77 26 36 90 66 141 67 l37 0 0 -350 0 -350 -45 0 c-49 0 -67 -18 -45 -45
18 -22 322 -22 340 0 22 27 4 45 -45 45 l-45 0 0 350 0 350 38 0 c50 -1 114
-31 140 -67 11 -16 26 -51 33 -77 13 -51 30 -66 54 -46 19 16 22 219 3 238
-17 17 -679 17 -696 0z"/>
</g>
</svg>
