<?xml version="1.0" standalone="no"?>
<!DOCTYPE svg PUBLIC "-//W3C//DTD SVG 20010904//EN"
 "http://www.w3.org/TR/2001/REC-SVG-20010904/DTD/svg10.dtd">
<svg version="1.0" xmlns="http://www.w3.org/2000/svg"
 width="64.000000pt" height="64.000000pt" viewBox="0 0 64.000000 64.000000"
 preserveAspectRatio="xMidYMid meet">

<g transform="translate(0.000000,64.000000) scale(0.100000,-0.100000)"
fill="white" stroke="none">
<path d="M0 320 l0 -320 320 0 320 0 0 320 0 320 -320 0 -320 0 0 -320z m327
178 c-2 -24 -4 -7 -4 37 0 44 2 63 4 43 2 -21 2 -57 0 -80z m-182 -38 c27 -27
47 -50 44 -50 -3 0 -27 23 -54 50 -27 28 -47 50 -44 50 3 0 27 -22 54 -50z
m114 -5 c0 -5 -6 -1 -14 9 -8 11 -15 27 -15 35 1 17 29 -26 29 -44z m147 18
c-8 -15 -15 -22 -16 -15 0 17 20 55 27 49 2 -3 -2 -18 -11 -34z m104 -18 c-29
-30 -56 -52 -59 -50 -6 7 90 105 103 105 6 0 -14 -25 -44 -55z m-124 -34 c46
-21 81 -64 90 -110 6 -27 11 -30 48 -34 22 -2 -69 -4 -204 -4 -135 0 -226 2
-204 4 37 4 42 7 48 34 9 46 44 89 90 110 52 23 80 23 132 0z m164 -46 c0 -2
-13 -11 -30 -20 -16 -9 -30 -11 -30 -6 0 7 22 19 58 30 1 1 2 -1 2 -4z m-405
-27 c7 -7 2 -8 -15 -3 -14 4 -29 12 -35 17 -7 7 -2 8 15 3 14 -4 30 -12 35
-17z m292 -135 c-64 -2 -170 -2 -235 0 -64 1 -11 3 118 3 129 0 182 -2 117 -3z
m-19 -60 c-54 -2 -142 -2 -196 0 -53 1 -9 3 98 3 107 0 151 -2 98 -3z m-20
-60 c-43 -2 -113 -2 -155 0 -43 1 -8 3 77 3 85 0 120 -2 78 -3z m-21 -60 c-31
-2 -83 -2 -115 0 -31 2 -5 3 58 3 63 0 89 -1 57 -3z"/>
</g>
</svg>
