<?xml version="1.0" standalone="no"?>
<!DOCTYPE svg PUBLIC "-//W3C//DTD SVG 20010904//EN"
 "http://www.w3.org/TR/2001/REC-SVG-20010904/DTD/svg10.dtd">
<svg version="1.0" xmlns="http://www.w3.org/2000/svg"
 width="64.000000pt" height="64.000000pt" viewBox="0 0 64.000000 64.000000"
 preserveAspectRatio="xMidYMid meet">

<g transform="translate(0.000000,64.000000) scale(0.100000,-0.100000)"
fill="white" stroke="none">
<path d="M0 320 l0 -320 320 0 320 0 0 320 0 320 -320 0 -320 0 0 -320z m293
292 c3 -4 80 -7 171 -6 134 1 162 -1 143 -11 -23 -12 -69 -12 -100 0 -13 6
-16 4 -11 -10 7 -16 6 -16 -18 -1 -23 15 -28 15 -61 1 -21 -8 -37 -22 -37 -30
0 -8 -9 -19 -20 -25 -11 -6 -20 -15 -20 -20 0 -9 7 -18 58 -74 16 -17 16 -18
-2 -15 -10 2 -24 13 -30 24 -6 11 -17 24 -23 28 -15 9 -18 67 -4 67 5 0 20 14
32 31 l22 31 -34 -7 c-19 -4 -42 -14 -51 -22 -15 -13 -17 -12 -20 9 -2 17 -9
23 -25 22 -13 0 -23 3 -23 8 0 10 47 11 53 0z m-67 -14 c4 -5 -4 -8 -17 -8
-23 0 -66 -37 -61 -52 1 -5 -2 -8 -8 -8 -16 0 -12 30 5 36 31 12 14 25 -22 18
-47 -9 -80 -30 -89 -56 -7 -24 4 -38 16 -18 8 12 10 12 16 -3 7 -20 35 -22 52
-5 8 8 15 8 26 -2 9 -7 22 -10 30 -7 8 3 20 -1 27 -9 8 -10 24 -14 41 -12 19
3 28 0 28 -10 0 -7 9 -16 19 -19 11 -3 22 -12 25 -20 4 -9 13 -12 26 -8 11 4
20 2 20 -4 0 -6 -4 -11 -10 -11 -13 0 -13 -27 0 -35 6 -4 17 -2 25 5 10 9 19
8 37 -4 15 -10 28 -12 38 -6 12 7 12 12 0 34 -11 22 -11 28 2 43 8 10 18 26
21 36 4 9 13 17 20 17 8 0 20 7 27 15 20 24 54 18 85 -15 35 -36 21 -40 -19
-5 -16 14 -32 25 -36 25 -4 0 -27 -18 -50 -41 -35 -34 -41 -45 -35 -67 9 -37
23 -48 67 -55 25 -4 40 -1 49 9 6 8 21 14 33 13 14 0 16 -2 6 -6 -8 -3 -26
-17 -39 -30 -21 -20 -23 -26 -12 -46 7 -13 24 -31 39 -40 20 -12 23 -17 10
-17 -23 0 -23 -19 0 -36 14 -11 14 -13 2 -14 -23 0 -70 48 -70 73 0 30 -60 56
-125 53 -51 -2 -95 10 -95 26 0 4 -9 8 -19 8 -11 0 -28 15 -40 35 -11 19 -25
35 -30 35 -5 0 -12 8 -15 18 -5 14 -18 17 -72 18 -55 1 -70 5 -83 22 -9 11
-25 22 -36 24 -30 5 -29 30 4 67 21 23 43 36 68 40 50 9 109 8 119 -1z m-8
-197 c45 -32 50 -64 19 -108 -49 -68 -15 -80 95 -33 93 40 138 40 172 -1 14
-17 26 -39 26 -49 0 -25 26 -43 60 -42 16 0 32 -4 35 -9 10 -15 -59 -10 -82 6
-12 8 -24 28 -28 45 -7 33 -47 70 -76 70 -10 0 -59 -17 -109 -37 -70 -29 -95
-35 -108 -27 -26 16 -27 53 -2 79 32 34 24 74 -20 99 -28 16 -51 21 -112 20
-49 -1 -75 2 -71 8 3 6 39 9 88 6 64 -3 88 -9 113 -27z m-34 -32 c14 -11 26
-24 26 -29 0 -5 -18 -27 -40 -49 -45 -44 -44 -41 -29 -75 15 -33 112 -71 121
-47 2 5 40 28 86 50 105 50 131 45 151 -34 12 -49 32 -65 96 -76 l40 -6 -48
-2 c-41 -1 -53 3 -78 28 -19 19 -29 40 -29 58 0 63 -32 67 -135 16 -78 -39
-92 -53 -52 -53 13 0 32 -9 42 -20 10 -11 26 -20 36 -20 9 0 31 -16 48 -35 32
-36 39 -55 21 -55 -5 0 -10 4 -10 9 0 22 -50 63 -69 58 -11 -3 -22 0 -24 6 -6
20 -76 -21 -83 -48 -5 -20 -12 -25 -38 -24 -30 2 -30 2 -3 6 19 3 27 10 27 24
0 11 17 29 43 46 l42 27 -45 8 c-25 5 -54 13 -65 17 -78 32 -77 32 -96 15 -11
-10 -22 -15 -25 -12 -3 3 7 15 21 26 23 18 24 22 10 35 -11 12 -13 25 -6 61
10 54 1 66 -51 66 -38 0 -38 0 -38 -40 0 -22 -4 -40 -10 -40 -13 0 -13 87 0
95 5 3 32 3 60 -1 44 -6 51 -10 58 -35 l7 -28 25 19 c50 39 -11 76 -108 65
-35 -3 -51 -2 -47 5 3 5 37 10 74 10 54 0 74 -4 95 -21z m269 -211 c9 -11 17
-26 17 -34 0 -8 4 -14 10 -14 20 0 110 -62 110 -76 0 -10 -12 -14 -47 -12 -44
1 -45 2 -10 5 20 2 37 8 37 14 0 5 -5 9 -12 9 -6 0 -27 12 -46 27 -23 17 -37
23 -40 15 -7 -21 -19 -13 -15 11 7 39 -17 58 -79 60 -46 2 -54 5 -45 15 16 20
97 6 120 -20z m-423 2 c0 -5 16 -12 36 -16 47 -9 107 -65 102 -96 -3 -20 -9
-23 -48 -24 -37 -1 -38 -1 -8 3 47 5 53 24 19 62 -21 23 -40 33 -74 37 -37 5
-47 11 -47 25 0 11 5 19 10 19 6 0 10 -4 10 -10z"/>
<path d="M106 477 c-15 -11 -13 -13 16 -15 18 -1 40 -5 50 -8 9 -2 19 0 23 6
3 6 -3 10 -15 10 -12 0 -29 4 -39 10 -13 6 -24 5 -35 -3z"/>
<path d="M240 452 c0 -16 24 -42 39 -42 6 0 11 -11 11 -24 0 -30 18 -44 26
-21 9 23 -16 65 -37 65 -10 0 -23 8 -28 18 -7 11 -11 12 -11 4z"/>
<path d="M363 353 c-13 -2 -23 -8 -23 -13 0 -5 7 -7 15 -4 8 4 15 2 15 -3 0
-5 14 -10 30 -10 17 0 30 2 30 5 0 6 -34 32 -40 30 -3 0 -15 -3 -27 -5z"/>
<path d="M457 343 c-13 -12 -7 -18 18 -19 28 -2 34 11 9 20 -19 7 -19 7 -27
-1z"/>
<path d="M520 320 c0 -23 15 -27 23 -6 3 8 -1 17 -9 20 -9 4 -14 -1 -14 -14z"/>
<path d="M571 234 c0 -11 3 -14 6 -6 3 7 2 16 -1 19 -3 4 -6 -2 -5 -13z"/>
</g>
</svg>
